<svg width="27" height="27" viewBox="0 0 27 27" fill="none" xmlns="http://www.w3.org/2000/svg">
<path d="M22.6584 0.540039H16.4376C15.8328 0.540039 15.336 1.0368 15.336 1.6416C15.336 2.2464 15.8328 2.74316 16.4376 2.74316L19.98 2.74331L9.67675 13.0681C9.24479 13.5001 9.24479 14.1914 9.67675 14.6233C9.89282 14.8394 10.1735 14.9473 10.4544 14.9473C10.7352 14.9473 11.0159 14.8392 11.232 14.6233L21.5568 4.32011V7.86251C21.5568 8.46731 22.0535 8.96407 22.6583 8.96407C23.2631 8.96407 23.7599 8.46731 23.7599 7.86251L23.76 1.64171C23.76 1.03691 23.2633 0.540151 22.6585 0.540151L22.6584 0.540039Z" fill="#E1EFE6"/>
<path d="M19.8072 10.7568C19.2024 10.7568 18.7056 11.2536 18.7056 11.8584V16.2864C18.7056 17.712 17.5393 18.8568 16.1352 18.8568H8.03519C6.60955 18.8568 5.46475 17.6905 5.46475 16.2864V8.1864C5.46475 6.76076 6.63107 5.61597 8.03519 5.61597H12.4632C13.068 5.61597 13.5648 5.1192 13.5648 4.5144C13.5648 3.9096 13.068 3.41284 12.4632 3.41284H8.03519C5.39999 3.41284 3.23999 5.55128 3.23999 8.20804V16.308C3.23999 18.9432 5.37843 21.1032 8.03519 21.1032H16.1352C18.7704 21.1032 20.9304 18.9648 20.9304 16.308V11.8584C20.9087 11.2536 20.412 10.7568 19.8072 10.7568L19.8072 10.7568Z" fill="#E1EFE6"/>
</svg>
