<svg width="47" height="38" viewBox="0 0 47 38" fill="none" xmlns="http://www.w3.org/2000/svg">
<path d="M0 23.35V20.2L12.65 12.3V16.05L3.6 21.75V21.8L12.65 27.5V31.25L0 23.35Z" fill="#160C28"/>
<path d="M18.0855 38L15.6355 35.55V14.35H14.7355V11.9L17.4355 7.55H19.0355V11.15H20.9855V14.35H19.0355V34.8H20.9855V38H18.0855Z" fill="#EFCB68"/>
<path d="M28.3969 38V36.65L27.0469 38H24.8969L22.9969 36.1V13.05L24.8969 11.15H27.0469L28.3969 12.5V0H31.7969V38H28.3969ZM28.3969 14.35H26.3969V34.8H28.3969V14.35Z" fill="#EFCB68"/>
<path d="M34.2832 31.25V27.5L43.3332 21.8V21.75L34.2832 16.05V12.3L46.9332 20.2V23.35L34.2832 31.25Z" fill="#160C28"/>
</svg>
