<svg width="20" height="20" viewBox="0 0 20 20" fill="none" xmlns="http://www.w3.org/2000/svg">
<path d="M19 10.7915C18.8427 12.4937 18.2039 14.1159 17.1583 15.4683C16.1127 16.8206 14.7035 17.8473 13.0957 18.428C11.4879 19.0087 9.74801 19.1196 8.07952 18.7476C6.41104 18.3755 4.88302 17.536 3.67425 16.3272C2.46548 15.1185 1.62596 13.5904 1.25393 11.922C0.881899 10.2535 0.992739 8.51355 1.57348 6.90576C2.15423 5.29797 3.18085 3.88883 4.53324 2.84322C5.88562 1.7976 7.50782 1.15877 9.21002 1.00146C8.21344 2.34973 7.73387 4.01091 7.85856 5.68288C7.98324 7.35484 8.70388 8.92652 9.88943 10.1121C11.075 11.2976 12.6466 12.0183 14.3186 12.1429C15.9906 12.2676 17.6518 11.7881 19 10.7915V10.7915Z" stroke="#E1EFE6" stroke-width="2" stroke-linecap="round" stroke-linejoin="round"/>
</svg>
